<svg xmlns="http://www.w3.org/2000/svg" version="1.1" xmlns:xlink="http://www.w3.org/1999/xlink" xmlns:svgjs="http://svgjs.com/svgjs" width="1440" height="560" preserveAspectRatio="none" viewBox="0 0 1440 560"><g mask="url(&quot;#SvgjsMask1007&quot;)" fill="none"><path d="M203.15 615.69C410.47 600.98 558.14 199.54 922.43 198.8 1286.73 198.06 1456.06 382.13 1641.72 383.6" stroke="rgba(51,121,194,0.58)" stroke-width="2"></path><path d="M181.38 631.82C297.59 629.65 399.89 478.83 620.36 478.74 840.84 478.65 839.85 548.74 1059.35 548.74 1278.84 548.74 1387.2 478.96 1498.33 478.74" stroke="rgba(51,121,194,0.58)" stroke-width="2"></path><path d="M614.5 576.35C774.27 549.46 857.95 157.96 1108.88 157.31 1359.81 156.66 1465.33 397.01 1603.26 403.71" stroke="rgba(51,121,194,0.58)" stroke-width="2"></path><path d="M250.38 665.57C401.16 614.41 425.58 184.4 652.5 171.69 879.43 158.98 853.56 241.69 1054.63 241.69 1255.69 241.69 1354.71 171.95 1456.75 171.69" stroke="rgba(51,121,194,0.58)" stroke-width="2"></path><path d="M972.82 616.07C1070.06 576.13 1031.79 276.1 1219.61 275.63 1407.43 275.16 1578.89 483.96 1713.19 488.43" stroke="rgba(51,121,194,0.58)" stroke-width="2"></path></g><defs><mask id="SvgjsMask1007"><rect width="1440" height="560" fill="#ffffff"></rect></mask></defs></svg>