<svg xmlns="http://www.w3.org/2000/svg" version="1.1" xmlns:xlink="http://www.w3.org/1999/xlink" xmlns:svgjs="http://svgjs.com/svgjs" width="1440" height="560" preserveAspectRatio="none" viewBox="0 0 1440 560"><g mask="url(&quot;#SvgjsMask1010&quot;)" fill="none"><path d="M-105.05 345.64L-105.05 345.64" stroke="#132e65" stroke-width="1.5"></path><path d="M-105.05 345.64L88.38 386.82" stroke="#132e65" stroke-width="1.5"></path><path d="M-105.05 345.64L-61.84 557.87" stroke="#132e65" stroke-width="1.5"></path><path d="M-105.05 345.64L85.46 557.72" stroke="#132e65" stroke-width="1.5"></path><path d="M-105.05 345.64L-72.25 649.56" stroke="#132e65" stroke-width="1.5"></path><path d="M-61.84 557.87L-61.84 557.87" stroke="#132e65" stroke-width="1.5"></path><path d="M-61.84 557.87L-72.25 649.56" stroke="#132e65" stroke-width="1.5"></path><path d="M-61.84 557.87L85.46 557.72" stroke="#132e65" stroke-width="1.5"></path><path d="M-61.84 557.87L45.86 679.54" stroke="#132e65" stroke-width="1.5"></path><path d="M-72.25 649.56L-72.25 649.56" stroke="#132e65" stroke-width="1.5"></path><path d="M-72.25 649.56L45.86 679.54" stroke="#132e65" stroke-width="1.5"></path><path d="M88.38 386.82L88.38 386.82" stroke="#132e65" stroke-width="1.5"></path><path d="M88.38 386.82L211.87 337.54" stroke="#132e65" stroke-width="1.5"></path><path d="M88.38 386.82L85.46 557.72" stroke="#132e65" stroke-width="1.5"></path><path d="M85.46 557.72L85.46 557.72" stroke="#132e65" stroke-width="1.5"></path><path d="M85.46 557.72L191.51 543.53" stroke="#132e65" stroke-width="1.5"></path><path d="M85.46 557.72L45.86 679.54" stroke="#132e65" stroke-width="1.5"></path><path d="M85.46 557.72L-72.25 649.56" stroke="#132e65" stroke-width="1.5"></path><path d="M85.46 557.72L259.5 682.2" stroke="#132e65" stroke-width="1.5"></path><path d="M45.86 679.54L45.86 679.54" stroke="#132e65" stroke-width="1.5"></path><path d="M211.87 337.54L211.87 337.54" stroke="#132e65" stroke-width="1.5"></path><path d="M211.87 337.54L342.89 405.97" stroke="#132e65" stroke-width="1.5"></path><path d="M211.87 337.54L191.51 543.53" stroke="#132e65" stroke-width="1.5"></path><path d="M191.51 543.53L191.51 543.53" stroke="#132e65" stroke-width="1.5"></path><path d="M191.51 543.53L259.5 682.2" stroke="#132e65" stroke-width="1.5"></path><path d="M191.51 543.53L88.38 386.82" stroke="#132e65" stroke-width="1.5"></path><path d="M191.51 543.53L377.68 510.88" stroke="#132e65" stroke-width="1.5"></path><path d="M191.51 543.53L45.86 679.54" stroke="#132e65" stroke-width="1.5"></path><path d="M191.51 543.53L342.89 405.97" stroke="#132e65" stroke-width="1.5"></path><path d="M259.5 682.2L259.5 682.2" stroke="#132e65" stroke-width="1.5"></path><path d="M259.5 682.2L408.37 702.38" stroke="#132e65" stroke-width="1.5"></path><path d="M342.89 405.97L342.89 405.97" stroke="#132e65" stroke-width="1.5"></path><path d="M342.89 405.97L377.68 510.88" stroke="#132e65" stroke-width="1.5"></path><path d="M342.89 405.97L559.84 362.09" stroke="#132e65" stroke-width="1.5"></path><path d="M377.68 510.88L377.68 510.88" stroke="#132e65" stroke-width="1.5"></path><path d="M377.68 510.88L523.29 560.36" stroke="#132e65" stroke-width="1.5"></path><path d="M377.68 510.88L408.37 702.38" stroke="#132e65" stroke-width="1.5"></path><path d="M408.37 702.38L408.37 702.38" stroke="#132e65" stroke-width="1.5"></path><path d="M408.37 702.38L529.86 653.96" stroke="#132e65" stroke-width="1.5"></path><path d="M408.37 702.38L523.29 560.36" stroke="#132e65" stroke-width="1.5"></path><path d="M408.37 702.38L651.5 644.21" stroke="#132e65" stroke-width="1.5"></path><path d="M408.37 702.38L191.51 543.53" stroke="#132e65" stroke-width="1.5"></path><path d="M559.84 362.09L559.84 362.09" stroke="#132e65" stroke-width="1.5"></path><path d="M559.84 362.09L697.96 392.58" stroke="#132e65" stroke-width="1.5"></path><path d="M559.84 362.09L523.29 560.36" stroke="#132e65" stroke-width="1.5"></path><path d="M559.84 362.09L710.43 537.18" stroke="#132e65" stroke-width="1.5"></path><path d="M559.84 362.09L377.68 510.88" stroke="#132e65" stroke-width="1.5"></path><path d="M523.29 560.36L523.29 560.36" stroke="#132e65" stroke-width="1.5"></path><path d="M523.29 560.36L529.86 653.96" stroke="#132e65" stroke-width="1.5"></path><path d="M523.29 560.36L651.5 644.21" stroke="#132e65" stroke-width="1.5"></path><path d="M529.86 653.96L529.86 653.96" stroke="#132e65" stroke-width="1.5"></path><path d="M529.86 653.96L651.5 644.21" stroke="#132e65" stroke-width="1.5"></path><path d="M697.96 392.58L697.96 392.58" stroke="#132e65" stroke-width="1.5"></path><path d="M697.96 392.58L710.43 537.18" stroke="#132e65" stroke-width="1.5"></path><path d="M710.43 537.18L710.43 537.18" stroke="#132e65" stroke-width="1.5"></path><path d="M710.43 537.18L817.84 499.33" stroke="#132e65" stroke-width="1.5"></path><path d="M710.43 537.18L651.5 644.21" stroke="#132e65" stroke-width="1.5"></path><path d="M710.43 537.18L523.29 560.36" stroke="#132e65" stroke-width="1.5"></path><path d="M651.5 644.21L651.5 644.21" stroke="#132e65" stroke-width="1.5"></path><path d="M829.32 189.06L829.32 189.06" stroke="#132e65" stroke-width="1.5"></path><path d="M829.32 189.06L952.51 65.66" stroke="#132e65" stroke-width="1.5"></path><path d="M829.32 189.06L852.23 376.55" stroke="#132e65" stroke-width="1.5"></path><path d="M829.32 189.06L942.91 399.88" stroke="#132e65" stroke-width="1.5"></path><path d="M829.32 189.06L697.96 392.58" stroke="#132e65" stroke-width="1.5"></path><path d="M829.32 189.06L994.02 -38.34" stroke="#132e65" stroke-width="1.5"></path><path d="M852.23 376.55L852.23 376.55" stroke="#132e65" stroke-width="1.5"></path><path d="M852.23 376.55L942.91 399.88" stroke="#132e65" stroke-width="1.5"></path><path d="M852.23 376.55L817.84 499.33" stroke="#132e65" stroke-width="1.5"></path><path d="M852.23 376.55L954.01 488.56" stroke="#132e65" stroke-width="1.5"></path><path d="M852.23 376.55L697.96 392.58" stroke="#132e65" stroke-width="1.5"></path><path d="M817.84 499.33L817.84 499.33" stroke="#132e65" stroke-width="1.5"></path><path d="M817.84 499.33L954.01 488.56" stroke="#132e65" stroke-width="1.5"></path><path d="M817.84 499.33L942.91 399.88" stroke="#132e65" stroke-width="1.5"></path><path d="M829.64 702.64L829.64 702.64" stroke="#132e65" stroke-width="1.5"></path><path d="M829.64 702.64L979.92 690.22" stroke="#132e65" stroke-width="1.5"></path><path d="M829.64 702.64L651.5 644.21" stroke="#132e65" stroke-width="1.5"></path><path d="M829.64 702.64L817.84 499.33" stroke="#132e65" stroke-width="1.5"></path><path d="M829.64 702.64L710.43 537.18" stroke="#132e65" stroke-width="1.5"></path><path d="M994.02 -38.34L994.02 -38.34" stroke="#132e65" stroke-width="1.5"></path><path d="M994.02 -38.34L952.51 65.66" stroke="#132e65" stroke-width="1.5"></path><path d="M994.02 -38.34L1142.29 -39.28" stroke="#132e65" stroke-width="1.5"></path><path d="M994.02 -38.34L1158.85 54.15" stroke="#132e65" stroke-width="1.5"></path><path d="M994.02 -38.34L1252.42 -48.78" stroke="#132e65" stroke-width="1.5"></path><path d="M952.51 65.66L952.51 65.66" stroke="#132e65" stroke-width="1.5"></path><path d="M952.51 65.66L1158.85 54.15" stroke="#132e65" stroke-width="1.5"></path><path d="M952.51 65.66L1142.29 -39.28" stroke="#132e65" stroke-width="1.5"></path><path d="M942.91 399.88L942.91 399.88" stroke="#132e65" stroke-width="1.5"></path><path d="M942.91 399.88L954.01 488.56" stroke="#132e65" stroke-width="1.5"></path><path d="M942.91 399.88L1154.92 407.69" stroke="#132e65" stroke-width="1.5"></path><path d="M954.01 488.56L954.01 488.56" stroke="#132e65" stroke-width="1.5"></path><path d="M954.01 488.56L1125.79 531.65" stroke="#132e65" stroke-width="1.5"></path><path d="M954.01 488.56L979.92 690.22" stroke="#132e65" stroke-width="1.5"></path><path d="M979.92 690.22L979.92 690.22" stroke="#132e65" stroke-width="1.5"></path><path d="M979.92 690.22L1088.78 665.99" stroke="#132e65" stroke-width="1.5"></path><path d="M1142.29 -39.28L1142.29 -39.28" stroke="#132e65" stroke-width="1.5"></path><path d="M1142.29 -39.28L1158.85 54.15" stroke="#132e65" stroke-width="1.5"></path><path d="M1142.29 -39.28L1252.42 -48.78" stroke="#132e65" stroke-width="1.5"></path><path d="M1142.29 -39.28L1264.94 49.46" stroke="#132e65" stroke-width="1.5"></path><path d="M1158.85 54.15L1158.85 54.15" stroke="#132e65" stroke-width="1.5"></path><path d="M1158.85 54.15L1264.94 49.46" stroke="#132e65" stroke-width="1.5"></path><path d="M1158.85 54.15L1252.42 -48.78" stroke="#132e65" stroke-width="1.5"></path><path d="M1154.92 407.69L1154.92 407.69" stroke="#132e65" stroke-width="1.5"></path><path d="M1154.92 407.69L1273.01 368.54" stroke="#132e65" stroke-width="1.5"></path><path d="M1154.92 407.69L1125.79 531.65" stroke="#132e65" stroke-width="1.5"></path><path d="M1154.92 407.69L1248.18 553.07" stroke="#132e65" stroke-width="1.5"></path><path d="M1125.79 531.65L1125.79 531.65" stroke="#132e65" stroke-width="1.5"></path><path d="M1125.79 531.65L1248.18 553.07" stroke="#132e65" stroke-width="1.5"></path><path d="M1125.79 531.65L1088.78 665.99" stroke="#132e65" stroke-width="1.5"></path><path d="M1088.78 665.99L1088.78 665.99" stroke="#132e65" stroke-width="1.5"></path><path d="M1088.78 665.99L1248.18 553.07" stroke="#132e65" stroke-width="1.5"></path><path d="M1252.42 -48.78L1252.42 -48.78" stroke="#132e65" stroke-width="1.5"></path><path d="M1252.42 -48.78L1264.94 49.46" stroke="#132e65" stroke-width="1.5"></path><path d="M1264.94 49.46L1264.94 49.46" stroke="#132e65" stroke-width="1.5"></path><path d="M1264.94 49.46L1398.04 91.53" stroke="#132e65" stroke-width="1.5"></path><path d="M1264.94 49.46L1281.77 214.02" stroke="#132e65" stroke-width="1.5"></path><path d="M1264.94 49.46L1390.98 -69.68" stroke="#132e65" stroke-width="1.5"></path><path d="M1281.77 214.02L1281.77 214.02" stroke="#132e65" stroke-width="1.5"></path><path d="M1281.77 214.02L1273.01 368.54" stroke="#132e65" stroke-width="1.5"></path><path d="M1273.01 368.54L1273.01 368.54" stroke="#132e65" stroke-width="1.5"></path><path d="M1273.01 368.54L1248.18 553.07" stroke="#132e65" stroke-width="1.5"></path><path d="M1273.01 368.54L1462.03 369.78" stroke="#132e65" stroke-width="1.5"></path><path d="M1273.01 368.54L1125.79 531.65" stroke="#132e65" stroke-width="1.5"></path><path d="M1248.18 553.07L1248.18 553.07" stroke="#132e65" stroke-width="1.5"></path><path d="M1248.18 553.07L1450.13 510.8" stroke="#132e65" stroke-width="1.5"></path><path d="M1248.18 553.07L1462.03 369.78" stroke="#132e65" stroke-width="1.5"></path><path d="M1390.98 -69.68L1390.98 -69.68" stroke="#132e65" stroke-width="1.5"></path><path d="M1390.98 -69.68L1252.42 -48.78" stroke="#132e65" stroke-width="1.5"></path><path d="M1390.98 -69.68L1398.04 91.53" stroke="#132e65" stroke-width="1.5"></path><path d="M1390.98 -69.68L1555.33 -105.72" stroke="#132e65" stroke-width="1.5"></path><path d="M1398.04 91.53L1398.04 91.53" stroke="#132e65" stroke-width="1.5"></path><path d="M1398.04 91.53L1459.86 239.6" stroke="#132e65" stroke-width="1.5"></path><path d="M1459.86 239.6L1459.86 239.6" stroke="#132e65" stroke-width="1.5"></path><path d="M1459.86 239.6L1549.31 188.1" stroke="#132e65" stroke-width="1.5"></path><path d="M1459.86 239.6L1462.03 369.78" stroke="#132e65" stroke-width="1.5"></path><path d="M1459.86 239.6L1558.14 350.67" stroke="#132e65" stroke-width="1.5"></path><path d="M1459.86 239.6L1281.77 214.02" stroke="#132e65" stroke-width="1.5"></path><path d="M1459.86 239.6L1602.15 80.25" stroke="#132e65" stroke-width="1.5"></path><path d="M1462.03 369.78L1462.03 369.78" stroke="#132e65" stroke-width="1.5"></path><path d="M1462.03 369.78L1558.14 350.67" stroke="#132e65" stroke-width="1.5"></path><path d="M1462.03 369.78L1450.13 510.8" stroke="#132e65" stroke-width="1.5"></path><path d="M1462.03 369.78L1554.97 524.14" stroke="#132e65" stroke-width="1.5"></path><path d="M1450.13 510.8L1450.13 510.8" stroke="#132e65" stroke-width="1.5"></path><path d="M1450.13 510.8L1554.97 524.14" stroke="#132e65" stroke-width="1.5"></path><path d="M1450.13 510.8L1558.14 350.67" stroke="#132e65" stroke-width="1.5"></path><path d="M1555.33 -105.72L1555.33 -105.72" stroke="#132e65" stroke-width="1.5"></path><path d="M1555.33 -105.72L1602.15 80.25" stroke="#132e65" stroke-width="1.5"></path><path d="M1555.33 -105.72L1398.04 91.53" stroke="#132e65" stroke-width="1.5"></path><path d="M1555.33 -105.72L1549.31 188.1" stroke="#132e65" stroke-width="1.5"></path><path d="M1602.15 80.25L1602.15 80.25" stroke="#132e65" stroke-width="1.5"></path><path d="M1602.15 80.25L1549.31 188.1" stroke="#132e65" stroke-width="1.5"></path><path d="M1549.31 188.1L1549.31 188.1" stroke="#132e65" stroke-width="1.5"></path><path d="M1558.14 350.67L1558.14 350.67" stroke="#132e65" stroke-width="1.5"></path><path d="M1558.14 350.67L1549.31 188.1" stroke="#132e65" stroke-width="1.5"></path><path d="M1554.97 524.14L1554.97 524.14" stroke="#132e65" stroke-width="1.5"></path><path d="M1554.97 524.14L1558.14 350.67" stroke="#132e65" stroke-width="1.5"></path><circle r="5" cx="-105.05" cy="345.64" fill="#132e65"></circle><circle r="5" cx="-61.84" cy="557.87" fill="#132e65"></circle><circle r="5" cx="-72.25" cy="649.56" fill="#132e65"></circle><circle r="5" cx="88.38" cy="386.82" fill="#132e65"></circle><circle r="5" cx="85.46" cy="557.72" fill="#132e65"></circle><circle r="5" cx="45.86" cy="679.54" fill="#132e65"></circle><circle r="5" cx="211.87" cy="337.54" fill="#132e65"></circle><circle r="5" cx="191.51" cy="543.53" fill="#132e65"></circle><circle r="5" cx="259.5" cy="682.2" fill="#132e65"></circle><circle r="5" cx="342.89" cy="405.97" fill="#132e65"></circle><circle r="5" cx="377.68" cy="510.88" fill="#132e65"></circle><circle r="5" cx="408.37" cy="702.38" fill="#132e65"></circle><circle r="5" cx="559.84" cy="362.09" fill="#132e65"></circle><circle r="5" cx="523.29" cy="560.36" fill="#132e65"></circle><circle r="5" cx="529.86" cy="653.96" fill="#132e65"></circle><circle r="5" cx="697.96" cy="392.58" fill="#132e65"></circle><circle r="5" cx="710.43" cy="537.18" fill="#132e65"></circle><circle r="5" cx="651.5" cy="644.21" fill="#132e65"></circle><circle r="5" cx="829.32" cy="189.06" fill="#132e65"></circle><circle r="5" cx="852.23" cy="376.55" fill="#132e65"></circle><circle r="5" cx="817.84" cy="499.33" fill="#132e65"></circle><circle r="5" cx="829.64" cy="702.64" fill="#132e65"></circle><circle r="5" cx="994.02" cy="-38.34" fill="#132e65"></circle><circle r="5" cx="952.51" cy="65.66" fill="#132e65"></circle><circle r="5" cx="942.91" cy="399.88" fill="#132e65"></circle><circle r="5" cx="954.01" cy="488.56" fill="#132e65"></circle><circle r="5" cx="979.92" cy="690.22" fill="#132e65"></circle><circle r="5" cx="1142.29" cy="-39.28" fill="#132e65"></circle><circle r="5" cx="1158.85" cy="54.15" fill="#132e65"></circle><circle r="5" cx="1154.92" cy="407.69" fill="#132e65"></circle><circle r="5" cx="1125.79" cy="531.65" fill="#132e65"></circle><circle r="5" cx="1088.78" cy="665.99" fill="#132e65"></circle><circle r="5" cx="1252.42" cy="-48.78" fill="#132e65"></circle><circle r="5" cx="1264.94" cy="49.46" fill="#132e65"></circle><circle r="5" cx="1281.77" cy="214.02" fill="#132e65"></circle><circle r="5" cx="1273.01" cy="368.54" fill="#132e65"></circle><circle r="5" cx="1248.18" cy="553.07" fill="#132e65"></circle><circle r="5" cx="1390.98" cy="-69.68" fill="#132e65"></circle><circle r="5" cx="1398.04" cy="91.53" fill="#132e65"></circle><circle r="5" cx="1459.86" cy="239.6" fill="#132e65"></circle><circle r="5" cx="1462.03" cy="369.78" fill="#132e65"></circle><circle r="5" cx="1450.13" cy="510.8" fill="#132e65"></circle><circle r="5" cx="1555.33" cy="-105.72" fill="#132e65"></circle><circle r="5" cx="1602.15" cy="80.25" fill="#132e65"></circle><circle r="5" cx="1549.31" cy="188.1" fill="#132e65"></circle><circle r="5" cx="1558.14" cy="350.67" fill="#132e65"></circle><circle r="5" cx="1554.97" cy="524.14" fill="#132e65"></circle><path d="M393.32 527.93L393.32 527.93" stroke="hsl(228.5, 77.2%, 51.5%)" stroke-width="1.5"></path><path d="M393.32 527.93L527.01 526.28" stroke="hsl(228.5, 77.2%, 51.5%)" stroke-width="1.5"></path><path d="M393.32 527.93L347.48 706.19" stroke="hsl(228.5, 77.2%, 51.5%)" stroke-width="1.5"></path><path d="M393.32 527.93L245.21 641.59" stroke="hsl(228.5, 77.2%, 51.5%)" stroke-width="1.5"></path><path d="M527.01 526.28L527.01 526.28" stroke="hsl(228.5, 77.2%, 51.5%)" stroke-width="1.5"></path><path d="M527.01 526.28L699.97 489.68" stroke="hsl(228.5, 77.2%, 51.5%)" stroke-width="1.5"></path><path d="M821.21 365.59L821.21 365.59" stroke="hsl(228.5, 77.2%, 51.5%)" stroke-width="1.5"></path><path d="M821.21 365.59L834.97 488.46" stroke="hsl(228.5, 77.2%, 51.5%)" stroke-width="1.5"></path><path d="M821.21 365.59L699.97 489.68" stroke="hsl(228.5, 77.2%, 51.5%)" stroke-width="1.5"></path><path d="M821.21 365.59L995.35 404.63" stroke="hsl(228.5, 77.2%, 51.5%)" stroke-width="1.5"></path><path d="M814.15 650.26L814.15 650.26" stroke="hsl(228.5, 77.2%, 51.5%)" stroke-width="1.5"></path><path d="M814.15 650.26L957.32 690.64" stroke="hsl(228.5, 77.2%, 51.5%)" stroke-width="1.5"></path><path d="M814.15 650.26L656.08 680.33" stroke="hsl(228.5, 77.2%, 51.5%)" stroke-width="1.5"></path><path d="M814.15 650.26L834.97 488.46" stroke="hsl(228.5, 77.2%, 51.5%)" stroke-width="1.5"></path><path d="M814.15 650.26L940.87 544.97" stroke="hsl(228.5, 77.2%, 51.5%)" stroke-width="1.5"></path><path d="M814.15 650.26L699.97 489.68" stroke="hsl(228.5, 77.2%, 51.5%)" stroke-width="1.5"></path><path d="M995.35 404.63L995.35 404.63" stroke="hsl(228.5, 77.2%, 51.5%)" stroke-width="1.5"></path><path d="M995.35 404.63L940.87 544.97" stroke="hsl(228.5, 77.2%, 51.5%)" stroke-width="1.5"></path><path d="M995.35 404.63L1157.05 392.97" stroke="hsl(228.5, 77.2%, 51.5%)" stroke-width="1.5"></path><path d="M1132.56 214.67L1132.56 214.67" stroke="hsl(228.5, 77.2%, 51.5%)" stroke-width="1.5"></path><path d="M1132.56 214.67L1144.99 89.29" stroke="hsl(228.5, 77.2%, 51.5%)" stroke-width="1.5"></path><path d="M1132.56 214.67L1299.56 221.13" stroke="hsl(228.5, 77.2%, 51.5%)" stroke-width="1.5"></path><path d="M1132.56 214.67L1157.05 392.97" stroke="hsl(228.5, 77.2%, 51.5%)" stroke-width="1.5"></path><path d="M1132.56 214.67L1283.99 54.81" stroke="hsl(228.5, 77.2%, 51.5%)" stroke-width="1.5"></path><path d="M1132.56 214.67L1262.83 409.09" stroke="hsl(228.5, 77.2%, 51.5%)" stroke-width="1.5"></path><path d="M1157.05 392.97L1157.05 392.97" stroke="hsl(228.5, 77.2%, 51.5%)" stroke-width="1.5"></path><path d="M1157.05 392.97L1262.83 409.09" stroke="hsl(228.5, 77.2%, 51.5%)" stroke-width="1.5"></path><path d="M1157.05 392.97L1148.1 539.06" stroke="hsl(228.5, 77.2%, 51.5%)" stroke-width="1.5"></path><path d="M1157.05 392.97L1312.44 526.96" stroke="hsl(228.5, 77.2%, 51.5%)" stroke-width="1.5"></path><path d="M1157.05 392.97L1299.56 221.13" stroke="hsl(228.5, 77.2%, 51.5%)" stroke-width="1.5"></path><path d="M1113.5 647.49L1113.5 647.49" stroke="hsl(228.5, 77.2%, 51.5%)" stroke-width="1.5"></path><path d="M1113.5 647.49L1148.1 539.06" stroke="hsl(228.5, 77.2%, 51.5%)" stroke-width="1.5"></path><path d="M1113.5 647.49L1264.09 705.34" stroke="hsl(228.5, 77.2%, 51.5%)" stroke-width="1.5"></path><path d="M1113.5 647.49L957.32 690.64" stroke="hsl(228.5, 77.2%, 51.5%)" stroke-width="1.5"></path><path d="M1297.5 -89.93L1297.5 -89.93" stroke="hsl(228.5, 77.2%, 51.5%)" stroke-width="1.5"></path><path d="M1297.5 -89.93L1283.99 54.81" stroke="hsl(228.5, 77.2%, 51.5%)" stroke-width="1.5"></path><path d="M1297.5 -89.93L1448.49 -99.74" stroke="hsl(228.5, 77.2%, 51.5%)" stroke-width="1.5"></path><path d="M1297.5 -89.93L1144.99 89.29" stroke="hsl(228.5, 77.2%, 51.5%)" stroke-width="1.5"></path><path d="M1297.5 -89.93L1299.56 221.13" stroke="hsl(228.5, 77.2%, 51.5%)" stroke-width="1.5"></path><path d="M1312.44 526.96L1312.44 526.96" stroke="hsl(228.5, 77.2%, 51.5%)" stroke-width="1.5"></path><path d="M1312.44 526.96L1262.83 409.09" stroke="hsl(228.5, 77.2%, 51.5%)" stroke-width="1.5"></path><path d="M1312.44 526.96L1443.29 549.33" stroke="hsl(228.5, 77.2%, 51.5%)" stroke-width="1.5"></path><path d="M1312.44 526.96L1148.1 539.06" stroke="hsl(228.5, 77.2%, 51.5%)" stroke-width="1.5"></path><path d="M1312.44 526.96L1264.09 705.34" stroke="hsl(228.5, 77.2%, 51.5%)" stroke-width="1.5"></path><path d="M1264.09 705.34L1264.09 705.34" stroke="hsl(228.5, 77.2%, 51.5%)" stroke-width="1.5"></path><path d="M1264.09 705.34L1392.16 703.77" stroke="hsl(228.5, 77.2%, 51.5%)" stroke-width="1.5"></path><path d="M1264.09 705.34L1148.1 539.06" stroke="hsl(228.5, 77.2%, 51.5%)" stroke-width="1.5"></path><path d="M1264.09 705.34L1443.29 549.33" stroke="hsl(228.5, 77.2%, 51.5%)" stroke-width="1.5"></path><path d="M1264.09 705.34L1262.83 409.09" stroke="hsl(228.5, 77.2%, 51.5%)" stroke-width="1.5"></path><path d="M1448.49 -99.74L1448.49 -99.74" stroke="hsl(228.5, 77.2%, 51.5%)" stroke-width="1.5"></path><path d="M1448.49 -99.74L1283.99 54.81" stroke="hsl(228.5, 77.2%, 51.5%)" stroke-width="1.5"></path><path d="M1448.49 -99.74L1592.53 111.63" stroke="hsl(228.5, 77.2%, 51.5%)" stroke-width="1.5"></path><path d="M1448.49 -99.74L1406.07 222.8" stroke="hsl(228.5, 77.2%, 51.5%)" stroke-width="1.5"></path><path d="M1448.49 -99.74L1299.56 221.13" stroke="hsl(228.5, 77.2%, 51.5%)" stroke-width="1.5"></path><path d="M1448.49 -99.74L1144.99 89.29" stroke="hsl(228.5, 77.2%, 51.5%)" stroke-width="1.5"></path><path d="M1406.07 222.8L1406.07 222.8" stroke="hsl(228.5, 77.2%, 51.5%)" stroke-width="1.5"></path><path d="M1406.07 222.8L1299.56 221.13" stroke="hsl(228.5, 77.2%, 51.5%)" stroke-width="1.5"></path><path d="M1406.07 222.8L1396.32 361.62" stroke="hsl(228.5, 77.2%, 51.5%)" stroke-width="1.5"></path><path d="M1406.07 222.8L1562.35 243.77" stroke="hsl(228.5, 77.2%, 51.5%)" stroke-width="1.5"></path><path d="M1406.07 222.8L1283.99 54.81" stroke="hsl(228.5, 77.2%, 51.5%)" stroke-width="1.5"></path><path d="M1561.87 695.91L1561.87 695.91" stroke="hsl(228.5, 77.2%, 51.5%)" stroke-width="1.5"></path><path d="M1561.87 695.91L1541.96 561.46" stroke="hsl(228.5, 77.2%, 51.5%)" stroke-width="1.5"></path><path d="M1561.87 695.91L1392.16 703.77" stroke="hsl(228.5, 77.2%, 51.5%)" stroke-width="1.5"></path><path d="M1561.87 695.91L1443.29 549.33" stroke="hsl(228.5, 77.2%, 51.5%)" stroke-width="1.5"></path><path d="M1561.87 695.91L1580.59 411.62" stroke="hsl(228.5, 77.2%, 51.5%)" stroke-width="1.5"></path><path d="M1561.87 695.91L1264.09 705.34" stroke="hsl(228.5, 77.2%, 51.5%)" stroke-width="1.5"></path><path d="M-62.89 512.57L-62.89 512.57" stroke="hsl(228.5, 77.2%, 51.5%)" stroke-width="1.5"></path><path d="M-62.89 512.57L89.23 544.53" stroke="hsl(228.5, 77.2%, 51.5%)" stroke-width="1.5"></path><path d="M-62.89 512.57L44.19 662.77" stroke="hsl(228.5, 77.2%, 51.5%)" stroke-width="1.5"></path><path d="M-43.66 700.49L-43.66 700.49" stroke="hsl(228.5, 77.2%, 51.5%)" stroke-width="1.5"></path><path d="M-43.66 700.49L44.19 662.77" stroke="hsl(228.5, 77.2%, 51.5%)" stroke-width="1.5"></path><path d="M-43.66 700.49L-62.89 512.57" stroke="hsl(228.5, 77.2%, 51.5%)" stroke-width="1.5"></path><path d="M89.23 544.53L89.23 544.53" stroke="hsl(228.5, 77.2%, 51.5%)" stroke-width="1.5"></path><path d="M89.23 544.53L191.72 561.62" stroke="hsl(228.5, 77.2%, 51.5%)" stroke-width="1.5"></path><path d="M89.23 544.53L44.19 662.77" stroke="hsl(228.5, 77.2%, 51.5%)" stroke-width="1.5"></path><path d="M44.19 662.77L44.19 662.77" stroke="hsl(228.5, 77.2%, 51.5%)" stroke-width="1.5"></path><path d="M44.19 662.77L191.72 561.62" stroke="hsl(228.5, 77.2%, 51.5%)" stroke-width="1.5"></path><path d="M191.72 561.62L191.72 561.62" stroke="hsl(228.5, 77.2%, 51.5%)" stroke-width="1.5"></path><path d="M191.72 561.62L245.21 641.59" stroke="hsl(228.5, 77.2%, 51.5%)" stroke-width="1.5"></path><path d="M245.21 641.59L245.21 641.59" stroke="hsl(228.5, 77.2%, 51.5%)" stroke-width="1.5"></path><path d="M245.21 641.59L347.48 706.19" stroke="hsl(228.5, 77.2%, 51.5%)" stroke-width="1.5"></path><path d="M347.48 706.19L347.48 706.19" stroke="hsl(228.5, 77.2%, 51.5%)" stroke-width="1.5"></path><path d="M347.48 706.19L488.25 702.52" stroke="hsl(228.5, 77.2%, 51.5%)" stroke-width="1.5"></path><path d="M347.48 706.19L191.72 561.62" stroke="hsl(228.5, 77.2%, 51.5%)" stroke-width="1.5"></path><path d="M347.48 706.19L527.01 526.28" stroke="hsl(228.5, 77.2%, 51.5%)" stroke-width="1.5"></path><path d="M488.25 702.52L488.25 702.52" stroke="hsl(228.5, 77.2%, 51.5%)" stroke-width="1.5"></path><path d="M488.25 702.52L656.08 680.33" stroke="hsl(228.5, 77.2%, 51.5%)" stroke-width="1.5"></path><path d="M488.25 702.52L527.01 526.28" stroke="hsl(228.5, 77.2%, 51.5%)" stroke-width="1.5"></path><path d="M488.25 702.52L393.32 527.93" stroke="hsl(228.5, 77.2%, 51.5%)" stroke-width="1.5"></path><path d="M699.97 489.68L699.97 489.68" stroke="hsl(228.5, 77.2%, 51.5%)" stroke-width="1.5"></path><path d="M699.97 489.68L834.97 488.46" stroke="hsl(228.5, 77.2%, 51.5%)" stroke-width="1.5"></path><path d="M699.97 489.68L656.08 680.33" stroke="hsl(228.5, 77.2%, 51.5%)" stroke-width="1.5"></path><path d="M699.97 489.68L940.87 544.97" stroke="hsl(228.5, 77.2%, 51.5%)" stroke-width="1.5"></path><path d="M656.08 680.33L656.08 680.33" stroke="hsl(228.5, 77.2%, 51.5%)" stroke-width="1.5"></path><path d="M834.97 488.46L834.97 488.46" stroke="hsl(228.5, 77.2%, 51.5%)" stroke-width="1.5"></path><path d="M834.97 488.46L940.87 544.97" stroke="hsl(228.5, 77.2%, 51.5%)" stroke-width="1.5"></path><path d="M940.87 544.97L940.87 544.97" stroke="hsl(228.5, 77.2%, 51.5%)" stroke-width="1.5"></path><path d="M940.87 544.97L957.32 690.64" stroke="hsl(228.5, 77.2%, 51.5%)" stroke-width="1.5"></path><path d="M940.87 544.97L1113.5 647.49" stroke="hsl(228.5, 77.2%, 51.5%)" stroke-width="1.5"></path><path d="M957.32 690.64L957.32 690.64" stroke="hsl(228.5, 77.2%, 51.5%)" stroke-width="1.5"></path><path d="M957.32 690.64L834.97 488.46" stroke="hsl(228.5, 77.2%, 51.5%)" stroke-width="1.5"></path><path d="M957.32 690.64L1148.1 539.06" stroke="hsl(228.5, 77.2%, 51.5%)" stroke-width="1.5"></path><path d="M1144.99 89.29L1144.99 89.29" stroke="hsl(228.5, 77.2%, 51.5%)" stroke-width="1.5"></path><path d="M1144.99 89.29L1283.99 54.81" stroke="hsl(228.5, 77.2%, 51.5%)" stroke-width="1.5"></path><path d="M1144.99 89.29L1299.56 221.13" stroke="hsl(228.5, 77.2%, 51.5%)" stroke-width="1.5"></path><path d="M1144.99 89.29L1406.07 222.8" stroke="hsl(228.5, 77.2%, 51.5%)" stroke-width="1.5"></path><path d="M1144.99 89.29L1157.05 392.97" stroke="hsl(228.5, 77.2%, 51.5%)" stroke-width="1.5"></path><path d="M1148.1 539.06L1148.1 539.06" stroke="hsl(228.5, 77.2%, 51.5%)" stroke-width="1.5"></path><path d="M1148.1 539.06L1262.83 409.09" stroke="hsl(228.5, 77.2%, 51.5%)" stroke-width="1.5"></path><path d="M1148.1 539.06L995.35 404.63" stroke="hsl(228.5, 77.2%, 51.5%)" stroke-width="1.5"></path><path d="M1283.99 54.81L1283.99 54.81" stroke="hsl(228.5, 77.2%, 51.5%)" stroke-width="1.5"></path><path d="M1299.56 221.13L1299.56 221.13" stroke="hsl(228.5, 77.2%, 51.5%)" stroke-width="1.5"></path><path d="M1299.56 221.13L1283.99 54.81" stroke="hsl(228.5, 77.2%, 51.5%)" stroke-width="1.5"></path><path d="M1299.56 221.13L1396.32 361.62" stroke="hsl(228.5, 77.2%, 51.5%)" stroke-width="1.5"></path><path d="M1262.83 409.09L1262.83 409.09" stroke="hsl(228.5, 77.2%, 51.5%)" stroke-width="1.5"></path><path d="M1262.83 409.09L1396.32 361.62" stroke="hsl(228.5, 77.2%, 51.5%)" stroke-width="1.5"></path><path d="M1396.32 361.62L1396.32 361.62" stroke="hsl(228.5, 77.2%, 51.5%)" stroke-width="1.5"></path><path d="M1443.29 549.33L1443.29 549.33" stroke="hsl(228.5, 77.2%, 51.5%)" stroke-width="1.5"></path><path d="M1443.29 549.33L1541.96 561.46" stroke="hsl(228.5, 77.2%, 51.5%)" stroke-width="1.5"></path><path d="M1392.16 703.77L1392.16 703.77" stroke="hsl(228.5, 77.2%, 51.5%)" stroke-width="1.5"></path><path d="M1392.16 703.77L1443.29 549.33" stroke="hsl(228.5, 77.2%, 51.5%)" stroke-width="1.5"></path><path d="M1392.16 703.77L1312.44 526.96" stroke="hsl(228.5, 77.2%, 51.5%)" stroke-width="1.5"></path><path d="M1392.16 703.77L1541.96 561.46" stroke="hsl(228.5, 77.2%, 51.5%)" stroke-width="1.5"></path><path d="M1592.53 111.63L1592.53 111.63" stroke="hsl(228.5, 77.2%, 51.5%)" stroke-width="1.5"></path><path d="M1592.53 111.63L1562.35 243.77" stroke="hsl(228.5, 77.2%, 51.5%)" stroke-width="1.5"></path><path d="M1592.53 111.63L1406.07 222.8" stroke="hsl(228.5, 77.2%, 51.5%)" stroke-width="1.5"></path><path d="M1592.53 111.63L1580.59 411.62" stroke="hsl(228.5, 77.2%, 51.5%)" stroke-width="1.5"></path><path d="M1562.35 243.77L1562.35 243.77" stroke="hsl(228.5, 77.2%, 51.5%)" stroke-width="1.5"></path><path d="M1562.35 243.77L1580.59 411.62" stroke="hsl(228.5, 77.2%, 51.5%)" stroke-width="1.5"></path><path d="M1562.35 243.77L1396.32 361.62" stroke="hsl(228.5, 77.2%, 51.5%)" stroke-width="1.5"></path><path d="M1562.35 243.77L1299.56 221.13" stroke="hsl(228.5, 77.2%, 51.5%)" stroke-width="1.5"></path><path d="M1580.59 411.62L1580.59 411.62" stroke="hsl(228.5, 77.2%, 51.5%)" stroke-width="1.5"></path><path d="M1580.59 411.62L1541.96 561.46" stroke="hsl(228.5, 77.2%, 51.5%)" stroke-width="1.5"></path><path d="M1580.59 411.62L1396.32 361.62" stroke="hsl(228.5, 77.2%, 51.5%)" stroke-width="1.5"></path><path d="M1580.59 411.62L1443.29 549.33" stroke="hsl(228.5, 77.2%, 51.5%)" stroke-width="1.5"></path><path d="M1580.59 411.62L1406.07 222.8" stroke="hsl(228.5, 77.2%, 51.5%)" stroke-width="1.5"></path><path d="M1541.96 561.46L1541.96 561.46" stroke="hsl(228.5, 77.2%, 51.5%)" stroke-width="1.5"></path><circle r="25" cx="393.32" cy="527.93" fill="url(#SvgjsRadialGradient1011)"></circle><circle r="25" cx="527.01" cy="526.28" fill="url(#SvgjsRadialGradient1011)"></circle><circle r="25" cx="821.21" cy="365.59" fill="url(#SvgjsRadialGradient1011)"></circle><circle r="25" cx="814.15" cy="650.26" fill="url(#SvgjsRadialGradient1011)"></circle><circle r="25" cx="995.35" cy="404.63" fill="url(#SvgjsRadialGradient1011)"></circle><circle r="25" cx="1132.56" cy="214.67" fill="url(#SvgjsRadialGradient1011)"></circle><circle r="25" cx="1157.05" cy="392.97" fill="url(#SvgjsRadialGradient1011)"></circle><circle r="25" cx="1113.5" cy="647.49" fill="url(#SvgjsRadialGradient1011)"></circle><circle r="25" cx="1297.5" cy="-89.93" fill="url(#SvgjsRadialGradient1011)"></circle><circle r="25" cx="1312.44" cy="526.96" fill="url(#SvgjsRadialGradient1011)"></circle><circle r="25" cx="1264.09" cy="705.34" fill="url(#SvgjsRadialGradient1011)"></circle><circle r="25" cx="1448.49" cy="-99.74" fill="url(#SvgjsRadialGradient1011)"></circle><circle r="25" cx="1406.07" cy="222.8" fill="url(#SvgjsRadialGradient1011)"></circle><circle r="25" cx="1561.87" cy="695.91" fill="url(#SvgjsRadialGradient1011)"></circle><circle r="5" cx="-62.89" cy="512.57" fill="#8b9ad9"></circle><circle r="5" cx="-43.66" cy="700.49" fill="#8b9ad9"></circle><circle r="5" cx="89.23" cy="544.53" fill="#8b9ad9"></circle><circle r="5" cx="44.19" cy="662.77" fill="#8b9ad9"></circle><circle r="5" cx="191.72" cy="561.62" fill="#8b9ad9"></circle><circle r="5" cx="245.21" cy="641.59" fill="#8b9ad9"></circle><circle r="5" cx="347.48" cy="706.19" fill="#8b9ad9"></circle><circle r="5" cx="488.25" cy="702.52" fill="#8b9ad9"></circle><circle r="5" cx="699.97" cy="489.68" fill="#8b9ad9"></circle><circle r="5" cx="656.08" cy="680.33" fill="#8b9ad9"></circle><circle r="5" cx="834.97" cy="488.46" fill="#8b9ad9"></circle><circle r="5" cx="940.87" cy="544.97" fill="#8b9ad9"></circle><circle r="5" cx="957.32" cy="690.64" fill="#8b9ad9"></circle><circle r="5" cx="1144.99" cy="89.29" fill="#8b9ad9"></circle><circle r="5" cx="1148.1" cy="539.06" fill="#8b9ad9"></circle><circle r="5" cx="1283.99" cy="54.81" fill="#8b9ad9"></circle><circle r="5" cx="1299.56" cy="221.13" fill="#8b9ad9"></circle><circle r="5" cx="1262.83" cy="409.09" fill="#8b9ad9"></circle><circle r="5" cx="1396.32" cy="361.62" fill="#8b9ad9"></circle><circle r="5" cx="1443.29" cy="549.33" fill="#8b9ad9"></circle><circle r="5" cx="1392.16" cy="703.77" fill="#8b9ad9"></circle><circle r="5" cx="1592.53" cy="111.63" fill="#8b9ad9"></circle><circle r="5" cx="1562.35" cy="243.77" fill="#8b9ad9"></circle><circle r="5" cx="1580.59" cy="411.62" fill="#8b9ad9"></circle><circle r="5" cx="1541.96" cy="561.46" fill="#8b9ad9"></circle></g><defs><mask id="SvgjsMask1010"><rect width="1440" height="560" fill="#ffffff"></rect></mask><radialGradient id="SvgjsRadialGradient1011"><stop stop-color="#ffffff" offset="0.1"></stop><stop stop-color="#1735b3" offset="0.2"></stop><stop stop-color="rgba(23, 53, 179, 0)" offset="1"></stop></radialGradient></defs></svg>